<svg width="16" height="17" viewBox="0 0 16 17" fill="none" xmlns="http://www.w3.org/2000/svg">
<rect width="16" height="16" transform="translate(0 0.5)" fill="white" fill-opacity="0.01"/>
<path fill-rule="evenodd" clip-rule="evenodd" d="M1.04375 4.61063C1.13197 4.22409 1.34882 3.87896 1.65881 3.63177C1.96879 3.38458 2.35352 3.24997 2.75 3.25H13.25C13.6465 3.24997 14.0312 3.38458 14.3412 3.63177C14.6512 3.87896 14.868 4.22409 14.9563 4.61063L8 8.86225L1.04375 4.61063ZM1 5.60987V11.8259L6.07762 8.71263L1 5.60987ZM6.91587 9.22625L1.16713 12.7499C1.30916 13.0494 1.53334 13.3024 1.81356 13.4794C2.09378 13.6565 2.41853 13.7503 2.75 13.75H13.25C13.5814 13.7501 13.906 13.656 14.1861 13.4788C14.4662 13.3016 14.6902 13.0485 14.832 12.749L9.08325 9.22538L8 9.88775L6.91587 9.22538V9.22625ZM9.92237 8.7135L15 11.8259V5.60987L9.92237 8.71263V8.7135Z" fill="#6C757D"/>
</svg>
