<svg width="18" height="19" viewBox="0 0 18 19" fill="none" xmlns="http://www.w3.org/2000/svg">
<rect width="18" height="18" transform="translate(0 0.5)" fill="white" fill-opacity="0.01"/>
<g clip-path="url(#clip0_36_9509)">
<path d="M12.742 11.844C13.7103 10.5227 14.144 8.88447 13.9563 7.25713C13.7686 5.62979 12.9734 4.13332 11.7297 3.06711C10.4861 2.0009 8.88573 1.44358 7.24882 1.50666C5.61191 1.56973 4.05917 2.24854 2.90125 3.40729C1.74333 4.56603 1.06563 6.11926 1.00373 7.75621C0.941829 9.39317 1.50029 10.9931 2.56739 12.236C3.63449 13.4789 5.13153 14.273 6.759 14.4596C8.38648 14.6461 10.0244 14.2112 11.345 13.242H11.344C11.374 13.282 11.406 13.32 11.442 13.357L15.292 17.207C15.4795 17.3946 15.7339 17.5001 15.9991 17.5002C16.2644 17.5003 16.5188 17.395 16.7065 17.2075C16.8941 17.02 16.9996 16.7656 16.9997 16.5003C16.9998 16.2351 16.8945 15.9806 16.707 15.793L12.857 11.943C12.8212 11.9068 12.7828 11.8734 12.742 11.843V11.844ZM13 7.99998C13 8.72225 12.8577 9.43745 12.5813 10.1047C12.3049 10.772 11.8998 11.3783 11.3891 11.8891C10.8783 12.3998 10.272 12.8049 9.60474 13.0813C8.93745 13.3577 8.22225 13.5 7.49998 13.5C6.77771 13.5 6.06251 13.3577 5.39522 13.0813C4.72793 12.8049 4.12162 12.3998 3.61089 11.8891C3.10017 11.3783 2.69505 10.772 2.41864 10.1047C2.14224 9.43745 1.99998 8.72225 1.99998 7.99998C1.99998 6.54129 2.57945 5.14234 3.6109 4.11089C4.64235 3.07944 6.04129 2.49998 7.49998 2.49998C8.95867 2.49998 10.3576 3.07944 11.3891 4.11089C12.4205 5.14234 13 6.54129 13 7.99998Z" fill="#6C757D"/>
</g>
<defs>
<clipPath id="clip0_36_9509">
<rect width="16" height="16" fill="white" transform="translate(1 1.5)"/>
</clipPath>
</defs>
</svg>
