<svg width="16" height="17" viewBox="0 0 16 17" fill="none" xmlns="http://www.w3.org/2000/svg">
<rect width="16" height="16" transform="translate(0 0.5)" fill="white" fill-opacity="0.01"/>
<g clip-path="url(#clip0_14_9791)">
<path d="M3.1875 9.375C3.1875 8.91087 3.37187 8.46575 3.70006 8.13756C4.02825 7.80937 4.47337 7.625 4.9375 7.625H11.0625C11.5266 7.625 11.9717 7.80937 12.2999 8.13756C12.6281 8.46575 12.8125 8.91087 12.8125 9.375V13.75C12.8125 14.2141 12.6281 14.6592 12.2999 14.9874C11.9717 15.3156 11.5266 15.5 11.0625 15.5H4.9375C4.47337 15.5 4.02825 15.3156 3.70006 14.9874C3.37187 14.6592 3.1875 14.2141 3.1875 13.75V9.375Z" fill="#6C757D"/>
<path fill-rule="evenodd" clip-rule="evenodd" d="M4.9375 5C4.9375 4.18777 5.26016 3.40882 5.83449 2.83449C6.40882 2.26016 7.18777 1.9375 8 1.9375C8.81223 1.9375 9.59118 2.26016 10.1655 2.83449C10.7398 3.40882 11.0625 4.18777 11.0625 5V7.625H10.1875V5C10.1875 4.41984 9.95703 3.86344 9.5468 3.4532C9.13656 3.04297 8.58016 2.8125 8 2.8125C7.41984 2.8125 6.86344 3.04297 6.4532 3.4532C6.04297 3.86344 5.8125 4.41984 5.8125 5V7.625H4.9375V5Z" fill="#6C757D"/>
</g>
<defs>
<clipPath id="clip0_14_9791">
<rect width="14" height="14" fill="white" transform="translate(1 1.5)"/>
</clipPath>
</defs>
</svg>
