<svg width="48" height="48" viewBox="0 0 48 48" fill="none" xmlns="http://www.w3.org/2000/svg">
<path d="M48 24C48 18.353 46.0088 12.8868 42.3765 8.56295C38.7443 4.23909 33.7038 1.33448 28.1415 0.360029C22.5792 -0.614427 16.8514 0.403685 11.9656 3.23529C7.07983 6.06689 3.34899 10.5306 1.42931 15.8413C-0.490362 21.152 -0.475915 26.9696 1.47011 32.2707C3.41614 37.5718 7.16911 42.0169 12.0689 44.8242C16.9687 47.6315 22.7014 48.6212 28.2588 47.6191C33.8162 46.617 38.8423 43.6874 42.453 39.3456L37.8397 35.5092C35.1317 38.7656 31.3622 40.9628 27.1941 41.7143C23.0261 42.4659 18.7265 41.7236 15.0517 39.6182C11.3768 37.5127 8.56211 34.1788 7.10258 30.203C5.64306 26.2272 5.63223 21.864 7.07198 17.881C8.51174 13.898 11.3099 10.5502 14.9742 8.42646C18.6385 6.30276 22.9344 5.53918 27.1061 6.27002C31.2778 7.00086 35.0583 9.17932 37.7824 12.4222C40.5066 15.6651 42 19.7647 42 24H48Z" fill="black"/>
</svg>
